# xmcd
#
# Track frame offsets:
# 150
# 19947
# 35871
# 57698
# 79520
# 97897
# 117189
# 137039
# 154258
# 171420
# 185737
# 202764
#
# Disc length: 2944 seconds
#
# Revision: 5
# Processed by: cddbd v1.4PL0 Copyright (c) Steve Scherf et al.
# Submitted via: Axialis_AX_CDPlayer 2.6
#
DISCID=a50b7e0c
DTITLE=Toni Braxton - The Heat
DYEAR=1900
DGENRE=
TTITLE0=He Wasn't Man Enough
TTITLE1=Heat, The
TTITLE2=Spanish Guitar
TTITLE3=Just Be A Man About It - featuring Dr. Dre
TTITLE4=Gimme Some
TTITLE5=I'm Still Breathing
TTITLE6=Fairy Tale
TTITLE7=Art of Love, The
TTITLE8=Speaking In Tongues
TTITLE9=Maybe
TTITLE10=You've Been Wrong
TTITLE11=Never Just for a Ring
EXTD=
EXTT0=
EXTT1=
EXTT2=
EXTT3=
EXTT4=
EXTT5=
EXTT6=
EXTT7=
EXTT8=
EXTT9=
EXTT10=
EXTT11=
PLAYORDER=
